 <svg version="1.0" xmlns="http://www.w3.org/2000/svg" width="700.000000pt" height="700.000000pt" viewBox="0 0 700.000000 700.000000" preserveAspectRatio="xMidYMid meet">
<metadata>
Created by potrace 1.12, written by Peter Selinger 2001-2015
</metadata>
<g transform="translate(0.000000,700.000000) scale(0.100000,-0.100000)" fill="#000000" stroke="none">
<path d="M5634 6737 c-137 -139 -602 -610 -1034 -1047 -433 -437 -855 -866
-940 -952 -84 -87 -159 -158 -166 -158 -13 0 -66 51 -649 628 -1176 1165
-1749 1728 -1767 1736 -17 8 -89 -60 -546 -518 l-527 -527 595 -591 c327 -324
871 -862 1207 -1196 337 -333 613 -611 613 -618 0 -13 -53 -68 -644 -664 -204
-207 -526 -533 -715 -725 -189 -193 -494 -501 -678 -686 -183 -184 -333 -342
-333 -350 0 -8 237 -250 526 -539 l525 -525 551 555 c303 305 841 849 1196
1208 355 358 650 652 656 652 11 0 259 -242 1031 -1008 1201 -1191 1375 -1362
1387 -1362 19 0 1058 1042 1058 1061 0 9 -111 125 -247 260 -137 134 -606 597
-1043 1030 -437 432 -866 855 -953 940 -86 85 -157 159 -157 164 0 10 282 298
1038 1060 246 248 646 651 890 897 243 245 442 452 442 459 0 14 -993 1014
-1041 1049 l-26 19 -249 -252z"></path>
</g>
</svg>